<?xml version="1.0" encoding="utf-8"?>
<!-- Generator: Adobe Illustrator 28.0.0, SVG Export Plug-In . SVG Version: 6.00 Build 0)  -->
<svg version="1.1" id="圖層_1" xmlns="http://www.w3.org/2000/svg" xmlns:xlink="http://www.w3.org/1999/xlink" x="0px" y="0px"
	 viewBox="0 0 28.4 28.4" style="enable-background:new 0 0 28.4 28.4;" xml:space="preserve">
<g id="Livello_1_1_">
</g>
<g>
	<path d="M14.8,16.6l7.3-6.1c0.3-0.2,0.2-0.4-0.2-0.4h-4.9v-7c0-0.8-0.6-1.4-1.4-1.4h-2.8c-0.8,0-1.4,0.6-1.4,1.4v7H6.6
		c-0.4,0-0.5,0.2-0.2,0.4l7.3,6.1C14.1,16.9,14.5,16.9,14.8,16.6z"/>
	<path d="M3.1,21.3v-5.6c0-0.8,0.6-1.4,1.4-1.4s1.4,0.6,1.4,1.4v5.6c0,0.8,0.6,1.4,1.4,1.4h14c0.8,0,1.4-0.6,1.4-1.4v-5.6
		c0-0.8,0.6-1.4,1.4-1.4c0.8,0,1.4,0.6,1.4,1.4v5.6c0,2.3-1.9,4.2-4.2,4.2h-14C5,25.5,3.1,23.6,3.1,21.3z"/>
</g>
</svg>
