<?xml version="1.0" encoding="utf-8"?>
<!-- Generator: Adobe Illustrator 28.0.0, SVG Export Plug-In . SVG Version: 6.00 Build 0)  -->
<svg version="1.1" id="圖層_1" xmlns="http://www.w3.org/2000/svg" xmlns:xlink="http://www.w3.org/1999/xlink" x="0px" y="0px"
	 viewBox="0 0 22.4 23.8" style="enable-background:new 0 0 22.4 23.8;" xml:space="preserve">
<style type="text/css">
	.st0{fill:#FFFFFF;}
</style>
<g>
	<path class="st0" d="M11.7,14.9l7.3-6.1c0.3-0.2,0.2-0.4-0.2-0.4H14v-7C14,0.6,13.4,0,12.6,0H9.8C9,0,8.4,0.6,8.4,1.4v7H3.5
		C3.1,8.4,3,8.6,3.3,8.8l7.3,6.1C11,15.2,11.4,15.2,11.7,14.9z"/>
	<path class="st0" d="M0,19.6V14c0-0.8,0.6-1.4,1.4-1.4s1.4,0.6,1.4,1.4v5.6c0,0.8,0.6,1.4,1.4,1.4h14c0.8,0,1.4-0.6,1.4-1.4V14
		c0-0.8,0.6-1.4,1.4-1.4c0.8,0,1.4,0.6,1.4,1.4v5.6c0,2.3-1.9,4.2-4.2,4.2h-14C1.9,23.8,0,21.9,0,19.6z"/>
</g>
</svg>
