<?xml version="1.0" encoding="utf-8"?>
<!-- Generator: Adobe Illustrator 28.0.0, SVG Export Plug-In . SVG Version: 6.00 Build 0)  -->
<svg version="1.1" id="lock" xmlns="http://www.w3.org/2000/svg" xmlns:xlink="http://www.w3.org/1999/xlink" x="0px" y="0px"
	 viewBox="0 0 32 32" style="enable-background:new 0 0 32 32;" xml:space="preserve">
<g>
	<path d="M25.8,32c-6.3,0-12.6,0-18.9,0c0,0,0,0-0.1,0c-1.6-0.4-2.5-1.5-2.5-3.2c0-4.5,0-9.1,0-13.6c0-1.9,1.3-3.1,3.1-3.1
		c0.3,0,0.6,0,0.9,0c0-1.3,0-2.6,0-3.8c0-0.5,0-1.1,0.1-1.6c0.7-4.2,4.9-7.2,9-6.5c4,0.7,6.8,3.9,6.8,8c0,1.2,0,2.4,0,3.6
		c0,0.1,0,0.2,0,0.3c0.4,0,0.7,0,1.1,0c1.6,0,2.9,1.3,2.9,2.9c0,4.7,0,9.4,0,14.1c0,1.2-0.8,2.3-2,2.7C26.2,31.9,26,31.9,25.8,32z
		 M21.7,12c0-1,0-2.1,0-3.1c0-0.6,0-1.2-0.1-1.8c-0.4-2.8-3.2-4.8-6-4.3c-2.7,0.4-4.5,2.6-4.6,5.3c0,1,0,2.1,0,3.1
		c0,0.3,0,0.5,0,0.8C14.6,12,18.1,12,21.7,12z M15.1,24c0,0.2,0,0.4,0,0.5c0,0.3,0,0.6,0,1c0,0.7,0.6,1.2,1.3,1.2
		c0.7,0,1.3-0.5,1.3-1.2c0-0.9,0-1.8,0-2.7c0-0.3,0.1-0.4,0.3-0.6c1-0.7,1.3-2,0.9-3.1c-0.5-1.1-1.6-1.8-2.8-1.6
		c-1.1,0.1-2,0.9-2.2,1.9c-0.3,1.1,0.1,2.2,1,2.8c0.2,0.1,0.3,0.3,0.3,0.5C15,23.1,15.1,23.5,15.1,24z"/>
</g>
</svg>
