<?xml version="1.0" encoding="utf-8"?>
<!-- Generator: Adobe Illustrator 28.0.0, SVG Export Plug-In . SVG Version: 6.00 Build 0)  -->
<svg version="1.1" id="圖層_1" xmlns="http://www.w3.org/2000/svg" xmlns:xlink="http://www.w3.org/1999/xlink" x="0px" y="0px"
	 viewBox="0 0 20.3 15.6" style="enable-background:new 0 0 20.3 15.6;" xml:space="preserve">
<style type="text/css">
	.st0{fill-rule:evenodd;clip-rule:evenodd;fill:#09CAE1;}
</style>
<g>
	<path class="st0" d="M6.4,11.5c1.7,2,4.4,2.2,6.3,1.3c1.7-0.9,3-2.6,2.8-5.4c-0.1,0-0.1,0.1-0.2,0.1c-0.7,0.3-1.3,0.5-2,0.8
		c-0.1,0-0.3-0.2-0.3-0.3c0.9-1.1,1.7-2.3,2.6-3.4c0.3-0.3,0.5-0.7,0.8-1c0.2-0.2,0.3-0.2,0.4,0C18,5,19.1,6.5,20.3,8
		c0.1,0.1-0.1,0.4-0.3,0.3c-0.7-0.3-1.4-0.5-2-0.8c-0.1,0-0.1,0-0.2-0.1c0,4-1.7,6.8-5.7,7.9C9.3,16.1,6.4,15,4.7,13
		C5.3,12.5,5.9,12,6.4,11.5z"/>
	<path class="st0" d="M4.8,8.2c0.6-0.3,1.3-0.5,1.9-0.8c0.1,0,0.2-0.1,0.4-0.1c0.1,0,0.3,0.2,0.2,0.3c-0.5,0.7-1,1.3-1.5,2
		c-0.6,0.8-1.3,1.6-1.9,2.5c-0.2,0.2-0.3,0.2-0.4,0C2.3,10.6,1.2,9.1,0,7.6c-0.1-0.1,0.2-0.4,0.3-0.3C1,7.6,1.7,7.8,2.4,8.1
		c0,0,0.1,0,0.1,0c0-4,1.8-6.8,5.7-8c2.7-0.6,5,0.1,7,2.1c-0.6,0.5-1.1,1-1.6,1.5c-1.9-1.7-4-2.1-6.3-0.9C5.4,4,4.6,6,4.8,8.2z"/>
</g>
</svg>
