<?xml version="1.0" encoding="utf-8"?>
<!-- Generator: Adobe Illustrator 28.0.0, SVG Export Plug-In . SVG Version: 6.00 Build 0)  -->
<svg version="1.1" id="圖層_1" xmlns="http://www.w3.org/2000/svg" xmlns:xlink="http://www.w3.org/1999/xlink" x="0px" y="0px"
	 viewBox="0 0 28.4 28.4" style="enable-background:new 0 0 28.4 28.4;" xml:space="preserve">
<g>
	<path d="M14.8,0.7c0.5,0.1,1.1,0.2,1.6,0.4c3.1,1,5.1,4,4.9,7.2c-0.3,3.4-2.7,6-5.9,6.5c-4,0.7-7.8-2.2-8.2-6.3
		c-0.4-3.9,2.4-7.3,6.3-7.7c0.1,0,0.1,0,0.2,0C14,0.7,14.4,0.7,14.8,0.7z"/>
	<path d="M14.2,27.5c-3.6,0-7.2,0-10.9,0c-0.7,0-1-0.3-0.9-1c0.1-5,3.7-9.2,8.7-10c0.4-0.1,0.9-0.1,1.4-0.1c1.1,0,2.3,0,3.4,0
		c4.6,0,8.6,3.2,9.8,7.6c0.2,0.9,0.4,1.7,0.4,2.6c0,0.6-0.3,0.9-0.9,0.9C21.5,27.5,17.9,27.5,14.2,27.5z"/>
</g>
</svg>
