<?xml version="1.0" encoding="utf-8"?>
<!-- Generator: Adobe Illustrator 28.0.0, SVG Export Plug-In . SVG Version: 6.00 Build 0)  -->
<svg version="1.1" id="圖層_1" xmlns="http://www.w3.org/2000/svg" xmlns:xlink="http://www.w3.org/1999/xlink" x="0px" y="0px"
	 viewBox="0 0 14 16" style="enable-background:new 0 0 14 16;" xml:space="preserve">
<style type="text/css">
	.st0{fill:#9FA0A0;}
</style>
<path class="st0" d="M12,0H2C0.9,0,0,0.9,0,2v12c0,1.1,0.9,2,2,2h10c1.1,0,2-0.9,2-2V2C14,0.9,13.1,0,12,0z M9,12.5
	C9,12.8,8.8,13,8.5,13h-5C3.2,13,3,12.8,3,12.5v-1C3,11.2,3.2,11,3.5,11h5C8.8,11,9,11.2,9,11.5V12.5z M11,8.5C11,8.8,10.8,9,10.5,9
	h-7C3.2,9,3,8.8,3,8.5v-1C3,7.2,3.2,7,3.5,7h7C10.8,7,11,7.2,11,7.5V8.5z M11,4.5C11,4.8,10.8,5,10.5,5h-7C3.2,5,3,4.8,3,4.5v-1
	C3,3.2,3.2,3,3.5,3h7C10.8,3,11,3.2,11,3.5V4.5z"/>
</svg>
