<?xml version="1.0" encoding="utf-8"?>
<!-- Generator: Adobe Illustrator 28.0.0, SVG Export Plug-In . SVG Version: 6.00 Build 0)  -->
<svg version="1.1" id="圖層_1" xmlns="http://www.w3.org/2000/svg" xmlns:xlink="http://www.w3.org/1999/xlink" x="0px" y="0px"
	 viewBox="0 0 15.6 15" style="enable-background:new 0 0 15.6 15;" xml:space="preserve">
<style type="text/css">
	.st0{fill:#F39800;}
</style>
<g>
	<path class="st0" d="M14.8,5V4c0-1.1-0.9-2-2-2h-5c0-1.1-0.9-2-2-2h-3c-1.1,0-2,0.9-2,2v2v0.2V5H14.8z"/>
	<path class="st0" d="M15,13c-0.1,1.1-1.1,2-2.2,2h-10c-1.1,0-2.1-0.9-2.2-2L0,8c-0.1-1.1,0.7-2,1.8-2h12c1.1,0,1.9,0.9,1.8,2L15,13
		z"/>
</g>
</svg>
